<svg width="124" height="133" viewBox="0 0 124 133" fill="none" xmlns="http://www.w3.org/2000/svg">
<path d="M123.461 62.165C123.463 62.232 123.44 62.2975 123.396 62.3481C123.349 62.4024 123.283 62.436 123.212 62.4416C123.141 62.4471 123.07 62.4242 123.016 62.3777L122.112 61.5994L106.753 48.3847L63.6728 11.315C63.427 11.1049 63.114 10.9897 62.7905 10.9901C62.467 10.9906 62.1544 11.1068 61.9093 11.3177L3.89559 61.6533L3.37248 62.1057C3.35236 62.1235 3.32962 62.138 3.30506 62.1488C3.26188 62.1679 3.21443 62.1754 3.16747 62.1704C3.10013 62.1632 3.03776 62.1316 2.99222 62.0815C2.96879 62.055 2.95084 62.0242 2.93937 61.9907C2.92791 61.9573 2.92316 61.9219 2.92541 61.8866C2.92766 61.8514 2.93686 61.8169 2.95248 61.7851C2.96811 61.7534 2.98984 61.7251 3.01645 61.7018L3.08925 61.6372L61.556 10.911C61.8995 10.6164 62.3371 10.4539 62.79 10.4529C63.2428 10.4519 63.6811 10.6125 64.0259 10.9057L107.12 47.9861L123.366 61.9684C123.395 61.993 123.418 62.0231 123.434 62.0569C123.45 62.0907 123.459 62.1275 123.461 62.165Z" fill="white"/>
<path d="M90.7058 70.1175L89.9965 68.1677L87.5534 61.4351L82.2897 46.9385L76.4059 30.7345L65.7949 1.5069C65.5865 0.936938 65.1605 0.472662 64.6101 0.215744C64.0597 -0.0411752 63.4298 -0.0697977 62.8583 0.136143L1.50912 22.351C0.938257 22.5589 0.473199 22.9843 0.215918 23.5341C-0.041364 24.0838 -0.0698823 24.713 0.136613 25.2838L15.1807 66.7189L15.4368 67.4271L31.2278 74.5745L35.6663 76.5835L36.3863 76.9093L55.1787 85.4166L55.9067 85.1527L68.2326 80.6904L86.8254 73.9578L89.3305 73.0502C89.9016 72.8426 90.367 72.4173 90.6248 71.8676C90.8826 71.3179 90.9117 70.6886 90.7058 70.1175Z" fill="#E6E6E6"/>
<path d="M64.9807 35.6035C64.6747 34.7647 64.0481 34.0813 63.2383 33.7031C62.4285 33.325 61.5016 33.283 60.6608 33.5864L36.3864 42.3792L24.6646 46.6234C24.2481 46.7737 23.8654 47.0046 23.5382 47.3028C23.2111 47.6009 22.9461 47.9605 22.7582 48.3611C22.5703 48.7616 22.4634 49.1952 22.4434 49.637C22.4234 50.0788 22.4908 50.5203 22.6417 50.9361C22.7927 51.3519 23.0242 51.7339 23.3231 52.0603C23.622 52.3867 23.9823 52.6511 24.3836 52.8383C24.7848 53.0255 25.219 53.1319 25.6615 53.1515C26.1039 53.171 26.5459 53.1032 26.9621 52.952L36.3864 49.54L62.9611 39.9177C63.801 39.6121 64.4852 38.9863 64.8638 38.1776C65.2424 37.3688 65.2845 36.4431 64.9807 35.6035Z" fill="white"/>
<path d="M69.2547 47.3775C68.9487 46.5386 68.322 45.8552 67.5122 45.4771C66.7025 45.099 65.7756 45.057 64.9348 45.3604L60.8226 46.8496L36.3864 55.699L28.9386 58.3947C28.0987 58.6995 27.4144 59.3249 27.036 60.1335C26.6575 60.942 26.616 61.8674 26.9205 62.7065C27.225 63.5456 27.8505 64.2296 28.6598 64.6083C29.469 64.987 30.3956 65.0293 31.2361 64.726L36.3864 62.8597L67.235 51.689C67.3051 51.6648 67.3725 51.6352 67.4399 51.6055C68.2232 51.2623 68.8464 50.6345 69.1834 49.8494C69.5204 49.0643 69.5459 48.1806 69.2547 47.3775Z" fill="white"/>
<path d="M73.5749 59.2753C73.2695 58.4366 72.6435 57.7532 71.8341 57.3751C71.0247 56.9969 70.0982 56.9549 69.2578 57.2582L57.7247 61.4351L48.7963 64.6695L36.3868 69.1615L33.2589 70.2952C32.5359 70.5582 31.9246 71.0598 31.5259 71.717C31.1272 72.3742 30.9652 73.1476 31.0665 73.9093C31.0974 74.136 31.1516 74.3589 31.2283 74.5745L35.6668 76.5835L36.3868 76.3223H36.3922L58.9111 68.1677L71.5552 63.5896C72.3956 63.2846 73.0804 62.6588 73.4591 61.8499C73.8378 61.0409 73.8795 60.1149 73.5749 59.2753Z" fill="white"/>
<path d="M48.2996 24.0288C47.9936 23.19 47.367 22.5066 46.5572 22.1285C45.7474 21.7504 44.8205 21.7084 43.9798 22.0117L30.0385 27.0585C29.1986 27.3633 28.5143 27.9887 28.1359 28.7973C27.7575 29.6058 27.7159 30.5313 28.0204 31.3703C28.3249 32.2094 28.9505 32.8934 29.7597 33.2721C30.5689 33.6508 31.4955 33.6931 32.336 33.3898L36.7476 31.7929L39.6679 30.7345L46.28 28.3404C47.1197 28.0353 47.804 27.4101 48.1826 26.6017C48.5613 25.7934 48.6033 24.8681 48.2996 24.0288Z" fill="white"/>
<path d="M103.935 30.7344H38.6786C38.2937 30.7348 37.9151 30.832 37.5777 31.0169C37.2403 31.2019 36.9549 31.4687 36.748 31.7928C36.5113 32.1597 36.3858 32.5871 36.3865 33.0235V76.9093L55.1789 85.4166L57.8269 86.615L62.0092 88.5082C62.2541 88.6187 62.5198 88.6759 62.7885 88.6759C63.0573 88.6759 63.3229 88.6187 63.5679 88.5082L67.7501 86.615L80.8392 80.6903L93.0385 75.1669L106.227 69.1991V33.0235C106.227 32.4165 105.985 31.8345 105.555 31.4053C105.126 30.9761 104.543 30.7348 103.935 30.7344Z" fill="#4946C3"/>
<path d="M90.4525 61.4351H52.1614C51.2908 61.4356 50.4541 61.7727 49.8267 62.3756C49.1994 62.9785 48.8301 63.8006 48.7961 64.6695C48.7917 64.7133 48.7899 64.7574 48.7908 64.8014C48.792 65.6938 49.1475 66.5493 49.7794 67.1804C50.4112 67.8114 51.2679 68.1665 52.1614 68.1677H90.4525C91.3464 68.1677 92.2038 67.8131 92.8359 67.1818C93.4681 66.5505 93.8232 65.6942 93.8232 64.8014C93.8232 63.9086 93.4681 63.0524 92.8359 62.4211C92.2038 61.7898 91.3464 61.4351 90.4525 61.4351Z" fill="white"/>
<path d="M92.6344 74.7602C92.0265 74.241 91.2526 73.9563 90.4528 73.9577H52.1617C51.2677 73.9577 50.4104 74.3124 49.7783 74.9437C49.1461 75.575 48.791 76.4312 48.791 77.324C48.791 78.2168 49.1461 79.073 49.7783 79.7043C50.4104 80.3356 51.2677 80.6903 52.1617 80.6903H80.8396L93.0388 75.1669C92.9157 75.0202 92.7804 74.8841 92.6344 74.7602Z" fill="white"/>
<path d="M57.8265 86.6151L62.0088 88.5083C62.2537 88.6188 62.5194 88.676 62.7881 88.676C63.0569 88.676 63.3225 88.6188 63.5674 88.5083L67.7497 86.6151H57.8265Z" fill="white"/>
<path d="M81.8883 47.084C81.651 46.4359 81.22 45.8763 80.6538 45.4809C80.0876 45.0855 79.4134 44.8732 78.7225 44.873H63.8914C63.2439 44.8736 62.6103 45.0603 62.0662 45.4108C61.522 45.7613 61.0904 46.2608 60.8228 46.8497C60.6231 47.2857 60.52 47.7598 60.5208 48.2393C60.522 49.1317 60.8775 49.9872 61.5094 50.6182C62.1413 51.2493 62.9979 51.6043 63.8914 51.6056H78.7225C79.2647 51.6056 79.799 51.475 80.2799 51.2248C80.7608 50.9747 81.1742 50.6123 81.4849 50.1685C81.7956 49.7247 81.9946 49.2125 82.0648 48.6755C82.135 48.1386 82.0745 47.5926 81.8883 47.084Z" fill="white"/>
<path d="M79.5314 80.6904L66.4423 86.6151L63.344 88.0182C63.1694 88.0967 62.98 88.1373 62.7885 88.1373C62.597 88.1373 62.4076 88.0967 62.233 88.0182L59.1347 86.6151H57.8269L62.0092 88.5083C62.2541 88.6188 62.5198 88.6759 62.7885 88.6759C63.0573 88.6759 63.3229 88.6188 63.5679 88.5083L67.7501 86.6151L80.8392 80.6904H79.5314ZM79.5314 80.6904L66.4423 86.6151L63.344 88.0182C63.1694 88.0967 62.98 88.1373 62.7885 88.1373C62.597 88.1373 62.4076 88.0967 62.233 88.0182L59.1347 86.6151H57.8269L62.0092 88.5083C62.2541 88.6188 62.5198 88.6759 62.7885 88.6759C63.0573 88.6759 63.3229 88.6188 63.5679 88.5083L67.7501 86.6151L80.8392 80.6904H79.5314ZM79.5314 80.6904L66.4423 86.6151L63.344 88.0182C63.1694 88.0967 62.98 88.1373 62.7885 88.1373C62.597 88.1373 62.4076 88.0967 62.233 88.0182L59.1347 86.6151H57.8269L62.0092 88.5083C62.2541 88.6188 62.5198 88.6759 62.7885 88.6759C63.0573 88.6759 63.3229 88.6188 63.5679 88.5083L67.7501 86.6151L80.8392 80.6904H79.5314ZM123.461 62.165C123.361 62.0661 123.252 61.9777 123.135 61.9011C122.87 61.7295 122.566 61.6275 122.251 61.6045C121.936 61.5814 121.62 61.638 121.333 61.7691L92.634 74.7603L79.5314 80.6904L66.4423 86.6151L63.344 88.0182C63.1694 88.0967 62.98 88.1373 62.7885 88.1373C62.597 88.1373 62.4076 88.0967 62.233 88.0182L59.1347 86.6151L55.9069 85.1528L36.3919 76.3223L36.3865 76.3196L31.0662 73.9093L15.1809 66.7189L4.2437 61.7691C4.13243 61.7177 4.01575 61.6789 3.89584 61.6533C3.63171 61.5874 3.35608 61.5819 3.08951 61.6372C2.66306 61.7243 2.27975 61.9557 2.00419 62.2922C1.72863 62.6287 1.57768 63.0499 1.57678 63.4846V131.115C1.57734 131.615 1.77638 132.094 2.13026 132.447C2.48413 132.801 2.96392 132.999 3.46437 133H122.113C122.613 132.999 123.093 132.801 123.447 132.447C123.801 132.094 124 131.615 124 131.115V63.4846C124.001 62.991 123.807 62.517 123.461 62.165ZM123.461 131.115C123.461 131.472 123.319 131.814 123.066 132.067C122.813 132.319 122.47 132.461 122.113 132.461H3.46436C3.10682 132.461 2.76396 132.319 2.51114 132.067C2.25832 131.814 2.11623 131.472 2.11608 131.115V63.4846C2.11619 63.2595 2.17276 63.0381 2.28064 62.8405C2.38851 62.6429 2.54424 62.4755 2.7336 62.3535C2.86684 62.2683 3.01363 62.2064 3.1677 62.1704C3.21311 62.1606 3.25905 62.1534 3.30529 62.1488C3.35796 62.1412 3.41114 62.1376 3.46435 62.1381C3.65606 62.1383 3.84549 62.1796 4.01984 62.2592L15.437 67.4272L31.228 74.5745L35.6666 76.5835L36.3865 76.9094L55.1789 85.4167L57.8269 86.6151L62.0092 88.5083C62.2541 88.6188 62.5198 88.6759 62.7885 88.6759C63.0573 88.6759 63.3229 88.6188 63.5679 88.5083L67.7501 86.6151L80.8392 80.6904L93.0385 75.167L121.557 62.2592C121.762 62.1664 121.988 62.1264 122.212 62.1428C122.437 62.1593 122.654 62.2317 122.843 62.3535C122.865 62.3663 122.886 62.3807 122.905 62.3966C122.927 62.4104 122.947 62.4267 122.965 62.4451C123.12 62.5704 123.245 62.7288 123.331 62.9087C123.417 63.0885 123.461 63.2853 123.461 63.4846L123.461 131.115ZM79.5314 80.6904L66.4423 86.6151L63.344 88.0182C63.1694 88.0967 62.98 88.1373 62.7885 88.1373C62.597 88.1373 62.4076 88.0967 62.233 88.0182L59.1347 86.6151H57.8269L62.0092 88.5083C62.2541 88.6188 62.5198 88.6759 62.7885 88.6759C63.0573 88.6759 63.3229 88.6188 63.5679 88.5083L67.7501 86.6151L80.8392 80.6904H79.5314ZM79.5314 80.6904L66.4423 86.6151L63.344 88.0182C63.1694 88.0967 62.98 88.1373 62.7885 88.1373C62.597 88.1373 62.4076 88.0967 62.233 88.0182L59.1347 86.6151H57.8269L62.0092 88.5083C62.2541 88.6188 62.5198 88.6759 62.7885 88.6759C63.0573 88.6759 63.3229 88.6188 63.5679 88.5083L67.7501 86.6151L80.8392 80.6904H79.5314ZM35.6666 76.5835L36.3865 76.9094V76.3223L35.6666 76.5835ZM79.5314 80.6904L66.4423 86.6151L63.344 88.0182C63.1694 88.0967 62.98 88.1373 62.7885 88.1373C62.597 88.1373 62.4076 88.0967 62.233 88.0182L59.1347 86.6151H57.8269L62.0092 88.5083C62.2541 88.6188 62.5198 88.6759 62.7885 88.6759C63.0573 88.6759 63.3229 88.6188 63.5679 88.5083L67.7501 86.6151L80.8392 80.6904H79.5314Z" fill="white"/>
</svg>
